<?xml version="1.0" standalone="no"?>
<!DOCTYPE svg PUBLIC "-//W3C//DTD SVG 20010904//EN"
 "http://www.w3.org/TR/2001/REC-SVG-20010904/DTD/svg10.dtd">
<svg version="1.0" xmlns="http://www.w3.org/2000/svg"
 width="500.000000pt" height="500.000000pt" viewBox="0 0 500.000000 500.000000"
 preserveAspectRatio="xMidYMid meet">

<g transform="translate(0.000000,500.000000) scale(0.100000,-0.100000)"
fill="#000000" stroke="none">
<path d="M1980 3944 c-217 -27 -376 -72 -536 -152 -284 -143 -510 -372 -652
-661 l-46 -94 42 -37 c85 -76 268 -146 462 -177 131 -20 509 -23 690 -5 296
31 619 88 965 172 177 43 485 126 492 134 6 6 -103 186 -153 252 -30 39 -98
114 -153 166 -206 199 -448 324 -730 378 -102 20 -309 33 -381 24z"/>
<path d="M3873 3863 c-7 -2 -13 -8 -13 -13 0 -4 57 -51 126 -104 118 -92 214
-195 214 -231 0 -20 -256 -215 -282 -215 -7 1 -38 14 -68 30 -62 34 -78 36
-106 16 -18 -14 -16 -17 39 -66 l57 -52 -25 -30 c-30 -36 -28 -42 10 -28 16 6
34 9 40 6 7 -2 20 -34 30 -71 10 -36 22 -68 26 -70 4 -3 17 7 28 21 17 22 21
41 21 100 l0 73 63 37 c34 20 103 59 154 86 l91 49 20 -28 c42 -61 71 -134
101 -263 41 -170 41 -170 51 -170 5 0 17 11 26 25 15 22 15 42 0 239 -23 312
-31 274 71 337 103 63 150 109 183 179 20 44 22 53 10 61 -47 29 -168 -6 -284
-81 -51 -33 -96 -60 -101 -60 -4 0 -80 40 -169 89 -262 144 -275 150 -313 134z"/>
<path d="M3400 2654 c-630 -526 -1387 -954 -1941 -1098 -112 -29 -283 -56
-360 -56 l-54 -1 65 -60 c211 -194 491 -328 775 -370 50 -7 149 -13 220 -12
376 2 715 140 987 401 218 209 355 457 420 755 18 86 22 132 21 292 0 105 -4
202 -9 217 l-9 28 -115 -96z"/>
</g>
</svg>
